<?xml version="1.0" encoding="UTF-8" standalone="no"?>
<!-- Created with Inkscape (http://www.inkscape.org/) -->

<svg
   width="6.6145563mm"
   height="7.9375196mm"
   viewBox="0 0 6.6145561 7.9375194"
   version="1.1"
   id="svg43"
   inkscape:version="1.1 (c68e22c387, 2021-05-23)"
   sodipodi:docname="Door_unlocked.svg"
   xmlns:inkscape="http://www.inkscape.org/namespaces/inkscape"
   xmlns:sodipodi="http://sodipodi.sourceforge.net/DTD/sodipodi-0.dtd"
   xmlns="http://www.w3.org/2000/svg"
   xmlns:svg="http://www.w3.org/2000/svg">
  <sodipodi:namedview
     id="namedview45"
     pagecolor="#ffffff"
     bordercolor="#666666"
     borderopacity="1.0"
     inkscape:pageshadow="2"
     inkscape:pageopacity="0.0"
     inkscape:pagecheckerboard="0"
     inkscape:document-units="mm"
     showgrid="false"
     fit-margin-top="0"
     fit-margin-left="0"
     fit-margin-right="0"
     fit-margin-bottom="0"
     inkscape:zoom="4"
     inkscape:cx="-66.875"
     inkscape:cy="84.125"
     inkscape:window-width="1920"
     inkscape:window-height="1013"
     inkscape:window-x="4791"
     inkscape:window-y="-9"
     inkscape:window-maximized="1"
     inkscape:current-layer="layer1" />
  <defs
     id="defs40" />
  <g
     inkscape:label="Layer 1"
     inkscape:groupmode="layer"
     id="layer1"
     transform="translate(-48.114756,-117.26852)">
    <path
       id="path22"
       style="display:inline;fill:#f2f2f2;fill-opacity:1;stroke-width:0.0160796"
       d="m 51.551484,117.45984 c -0.156693,3e-5 -0.312027,0.009 -0.411393,0.0274 -0.461358,0.0847 -0.812582,0.24939 -1.138502,0.53367 -0.257098,0.22426 -0.424644,0.45626 -0.530701,0.73453 -0.104527,0.27425 -0.108138,0.30452 -0.116497,0.96815 l -0.0079,0.61175 -0.175025,2.7e-4 c -0.312555,3.9e-4 -0.496101,0.0597 -0.67815,0.21845 -0.1194,0.10415 -0.199075,0.23138 -0.228206,0.36537 -0.02408,0.11077 -0.02408,3.52687 0,3.63765 0.05767,0.26524 0.311564,0.4962 0.61568,0.56051 0.08172,0.0173 0.536726,0.0212 2.657164,0.0222 1.636669,7.9e-4 2.592216,-0.004 2.651537,-0.0138 0.154438,-0.025 0.326314,-0.10847 0.435873,-0.21169 0.113109,-0.10655 0.172223,-0.20118 0.207666,-0.3323 0.03813,-0.14107 0.03813,-3.54644 0,-3.68751 -0.05601,-0.20721 -0.216617,-0.38619 -0.427713,-0.47649 -0.149779,-0.0641 -0.256962,-0.0826 -0.476956,-0.0826 h -0.168269 v -0.007 h -0.553776 v 0.007 h -1.652883 -1.652884 v -0.53856 c 0,-0.59643 0.01153,-0.69985 0.103832,-0.92235 0.146052,-0.35207 0.496933,-0.67501 0.893132,-0.82207 0.39302,-0.14588 0.826202,-0.15599 1.228547,-0.029 0.432547,0.13652 0.819731,0.47403 0.976143,0.85107 0.03422,0.0825 0.05731,0.14861 0.07288,0.22957 h 0.556308 c -0.01477,-0.13092 -0.04201,-0.20775 -0.09567,-0.34856 -0.106057,-0.27826 -0.273604,-0.51026 -0.530701,-0.73452 -0.323264,-0.28196 -0.697506,-0.45814 -1.13372,-0.53368 -0.105017,-0.0182 -0.263142,-0.0274 -0.419834,-0.0274 z m -0.849516,3.36362 c 0.246938,-6e-5 0.529116,0 0.851486,0 2.578951,0 2.580093,-5e-5 2.627618,0.0309 0.02615,0.017 0.06349,0.0498 0.08301,0.0727 0.03538,0.0413 0.03545,0.047 0.03545,1.81111 0,1.7641 -7.2e-5,1.77003 -0.03545,1.81136 -0.01953,0.0228 -0.05686,0.0554 -0.08301,0.0724 -0.04747,0.0309 -0.05174,0.0311 -2.607358,0.0344 -2.101831,0.003 -2.569314,-3.6e-4 -2.612423,-0.0168 -0.06933,-0.0264 -0.141539,-0.10324 -0.15392,-0.16344 -0.0055,-0.0266 -0.0078,-0.82673 -0.0051,-1.77804 0.005,-1.72014 0.0052,-1.72974 0.04052,-1.77098 0.01953,-0.0228 0.05686,-0.0556 0.08301,-0.0727 0.04158,-0.0271 0.04757,-0.0305 1.776134,-0.0309 z m 0.849516,0.79714 c -0.501666,-8.4e-4 -0.89843,0.46097 -0.65395,0.91666 0.06055,0.11287 0.198095,0.23899 0.307841,0.28215 l 0.0726,0.0284 v 0.40602 c 0,0.37851 0.0023,0.41018 0.03518,0.46944 0.03595,0.0647 0.09021,0.10547 0.169958,0.12739 0.112713,0.031 0.25486,-0.0271 0.310093,-0.12658 0.03337,-0.0601 0.03574,-0.0904 0.03574,-0.47025 v -0.40602 l 0.07232,-0.0284 c 0.177613,-0.0699 0.343951,-0.27863 0.375092,-0.4708 0.04429,-0.27329 -0.12367,-0.54917 -0.403794,-0.6635 -0.108356,-0.0442 -0.216946,-0.0643 -0.321066,-0.0645 z" />
  </g>
</svg>
