<?xml version="1.0" encoding="UTF-8" standalone="no"?>
<!-- Created with Inkscape (http://www.inkscape.org/) -->

<svg
   width="7.6371446mm"
   height="7.9374976mm"
   viewBox="0 0 7.6371446 7.9374976"
   version="1.1"
   id="svg8412"
   inkscape:version="1.1 (c68e22c387, 2021-05-23)"
   sodipodi:docname="door_monitor.svg"
   xmlns:inkscape="http://www.inkscape.org/namespaces/inkscape"
   xmlns:sodipodi="http://sodipodi.sourceforge.net/DTD/sodipodi-0.dtd"
   xmlns="http://www.w3.org/2000/svg"
   xmlns:svg="http://www.w3.org/2000/svg">
  <sodipodi:namedview
     id="namedview8414"
     pagecolor="#ffffff"
     bordercolor="#666666"
     borderopacity="1.0"
     inkscape:pageshadow="2"
     inkscape:pageopacity="0.0"
     inkscape:pagecheckerboard="0"
     inkscape:document-units="mm"
     showgrid="false"
     fit-margin-top="0"
     fit-margin-left="0"
     fit-margin-right="0"
     fit-margin-bottom="0"
     inkscape:zoom="16"
     inkscape:cx="41.34375"
     inkscape:cy="24.8125"
     inkscape:window-width="2400"
     inkscape:window-height="1284"
     inkscape:window-x="7191"
     inkscape:window-y="-9"
     inkscape:window-maximized="1"
     inkscape:current-layer="layer1" />
  <defs
     id="defs8409" />
  <g
     inkscape:label="Layer 1"
     inkscape:groupmode="layer"
     id="layer1"
     transform="translate(-94.220263,-137.68295)">
    <path
       id="path22"
       style="display:inline;fill:#ff0000;fill-opacity:1;stroke-width:0.0163469"
       d="m 98.547264,137.68295 c -0.156693,3e-5 -0.312027,0.009 -0.411393,0.0283 -0.461358,0.0875 -0.812582,0.25776 -1.138502,0.55157 -0.257098,0.23177 -0.424644,0.47155 -0.530701,0.75914 -0.104527,0.28345 -0.108138,0.31475 -0.116497,1.00062 l -0.0079,0.63225 -0.175025,2.8e-4 c -0.312555,4.1e-4 -0.496101,0.0617 -0.67815,0.22578 -0.1194,0.10764 -0.199075,0.23913 -0.228206,0.37761 -0.02408,0.11449 -0.02408,3.64511 0,3.7596 0.05767,0.27413 0.311564,0.51284 0.61568,0.5793 0.08172,0.0179 0.536726,0.0219 2.657164,0.023 1.636666,8.1e-4 2.592216,-0.004 2.651536,-0.0143 0.15444,-0.0258 0.32631,-0.1121 0.43587,-0.21878 0.11311,-0.11013 0.17223,-0.20792 0.20767,-0.34344 0.0381,-0.1458 0.0381,-3.66533 0,-3.81113 -0.056,-0.21416 -0.21662,-0.39914 -0.42771,-0.49247 -0.14978,-0.0662 -0.25697,-0.0854 -0.47696,-0.0854 h -0.16827 v -0.007 h -0.55377 v 0.007 h -1.652887 -1.652884 v -0.55661 c 0,-0.61642 0.01153,-0.72331 0.103832,-0.95327 0.146052,-0.36387 0.496933,-0.69764 0.893132,-0.84963 0.39302,-0.15077 0.826202,-0.16122 1.228547,-0.03 0.432547,0.14109 0.819731,0.48992 0.97614,0.8796 0.0342,0.0853 0.0573,0.15359 0.0729,0.23727 h 0.55631 c -0.0148,-0.13531 -0.042,-0.21473 -0.0957,-0.36025 -0.10606,-0.28759 -0.2736,-0.52737 -0.5307,-0.75914 -0.323264,-0.29142 -0.697506,-0.4735 -1.13372,-0.55157 -0.105017,-0.0188 -0.263142,-0.0283 -0.419834,-0.0283 z m -0.849516,3.47638 c 0.246938,-6e-5 0.529116,0 0.851486,0 2.578956,0 2.580096,-5e-5 2.627616,0.0319 0.0262,0.0176 0.0635,0.0515 0.083,0.0751 0.0354,0.0427 0.0354,0.0486 0.0354,1.87181 0,1.82325 -7e-5,1.82938 -0.0354,1.8721 -0.0195,0.0236 -0.0569,0.0572 -0.083,0.0748 -0.0475,0.0319 -0.0517,0.0322 -2.607356,0.0356 -2.101831,0.003 -2.569314,-3.8e-4 -2.612423,-0.0174 -0.06933,-0.0273 -0.141539,-0.1067 -0.15392,-0.16892 -0.0055,-0.0275 -0.0078,-0.85444 -0.0051,-1.83764 0.005,-1.77781 0.0052,-1.78773 0.04052,-1.83035 0.01953,-0.0236 0.05686,-0.0575 0.08301,-0.0751 0.04158,-0.028 0.04757,-0.0315 1.776134,-0.0319 z m 0.849516,0.82386 c -0.501666,-8.7e-4 -0.89843,0.47642 -0.65395,0.94739 0.06055,0.11665 0.198095,0.247 0.307841,0.29161 l 0.0726,0.0294 v 0.41963 c 0,0.3912 0.0023,0.42393 0.03518,0.48518 0.03595,0.067 0.09021,0.10901 0.169958,0.13166 0.112713,0.032 0.25486,-0.028 0.310093,-0.13081 0.03337,-0.0621 0.03574,-0.0934 0.03574,-0.48603 v -0.41963 l 0.07232,-0.0294 c 0.177613,-0.0722 0.343951,-0.28797 0.375092,-0.48658 0.04429,-0.28246 -0.12367,-0.56758 -0.403794,-0.68575 -0.108356,-0.0457 -0.216946,-0.0665 -0.321066,-0.0667 z" />
    <text
       xml:space="preserve"
       style="font-style:normal;font-weight:normal;font-size:3.7305px;line-height:1.25;font-family:sans-serif;fill:#ffffff;fill-opacity:1;stroke:none;stroke-width:0.093263"
       x="89.878906"
       y="149.55057"
       id="text4590"
       transform="scale(1.0442811,0.95759657)"><tspan
         sodipodi:role="line"
         id="tspan4588"
         style="font-weight:bold;fill:#ffffff;stroke-width:0.093263"
         x="89.878906"
         y="149.55057">M</tspan></text>
  </g>
</svg>
