<?xml version="1.0" encoding="UTF-8" standalone="no"?>
<svg
   height="18.416674pt"
   viewBox="0 0 21.999998 18.416674"
   width="21.999998pt"
   version="1.1"
   id="svg4"
   sodipodi:docname="Durress.svg"
   inkscape:version="1.1 (c68e22c387, 2021-05-23)"
   xmlns:inkscape="http://www.inkscape.org/namespaces/inkscape"
   xmlns:sodipodi="http://sodipodi.sourceforge.net/DTD/sodipodi-0.dtd"
   xmlns="http://www.w3.org/2000/svg"
   xmlns:svg="http://www.w3.org/2000/svg">
  <defs
     id="defs8">
    <rect
       x="-70.420715"
       y="101.90291"
       width="854.9903"
       height="392.69904"
       id="rect6912" />
  </defs>
  <sodipodi:namedview
     id="namedview6"
     pagecolor="#ffffff"
     bordercolor="#666666"
     borderopacity="1.0"
     inkscape:pageshadow="2"
     inkscape:pageopacity="0.0"
     inkscape:pagecheckerboard="0"
     inkscape:document-units="pt"
     showgrid="false"
     inkscape:zoom="6"
     inkscape:cx="-35.083333"
     inkscape:cy="-19.583333"
     inkscape:window-width="1920"
     inkscape:window-height="1013"
     inkscape:window-x="4791"
     inkscape:window-y="-9"
     inkscape:window-maximized="1"
     inkscape:current-layer="svg4"
     fit-margin-top="0"
     fit-margin-left="0"
     fit-margin-right="0"
     fit-margin-bottom="0" />
  <path
     d="m 10.999999,4.2444678 c -3.26965,0 -5.92969,2.226774 -5.92969,4.963869 0,2.7370952 2.66004,4.9638692 5.92969,4.9638692 3.26965,0 5.92969,-2.226774 5.92969,-4.9638692 0,-2.737095 -2.66004,-4.963869 -5.92969,-4.963869 z m 0,8.4889352 c -2.32182,0 -4.21094,-1.581278 -4.21094,-3.5250662 0,-1.943788 1.88912,-3.525067 4.21094,-3.525067 2.32182,0 4.21094,1.581279 4.21094,3.525067 0,1.9437882 -1.88912,3.5250662 -4.21094,3.5250662 z M 3.781249,4.0646198 c 0,-0.4966978 0.48088,-0.8992541 1.07422,-0.8992541 0.59334,0 1.07422,0.4025563 1.07422,0.8992541 0,0.496693 -0.48088,0.899249 -1.07422,0.899249 -0.59334,0 -1.07422,-0.402556 -1.07422,-0.899249 z m 14.4375,10.2874382 c 0,0.496693 -0.48088,0.89925 -1.07422,0.89925 -0.59334,0 -1.07422,-0.402557 -1.07422,-0.89925 0,-0.496697 0.48088,-0.899254 1.07422,-0.899254 0.59334,0 1.07422,0.402557 1.07422,0.899254 z m 0,-10.2874382 c 0,0.496693 -0.48088,0.899249 -1.07422,0.899249 -0.59334,0 -1.07422,-0.402556 -1.07422,-0.899249 0,-0.4966978 0.48088,-0.8992541 1.07422,-0.8992541 0.59334,0 1.07422,0.4025563 1.07422,0.8992541 z M 5.929689,14.352058 c 0,0.496693 -0.48088,0.89925 -1.07422,0.89925 -0.59334,0 -1.07422,-0.402557 -1.07422,-0.89925 0,-0.496697 0.48088,-0.899254 1.07422,-0.899254 0.59334,0 1.07422,0.402557 1.07422,0.899254 z M 17.703129,0 H 4.296869 C 1.927552,0 0,1.6135952 0,3.5970065 V 14.819667 c 0,1.983411 1.927552,3.597006 4.296869,3.597006 h 13.40626 c 2.36932,0 4.29687,-1.613595 4.29687,-3.597006 V 3.5970065 C 21.999999,1.6135952 20.072449,0 17.703129,0 Z m 2.57812,14.819667 c 0,1.190104 -1.15646,2.158204 -2.57812,2.158204 H 4.296869 c -1.42166,0 -2.578117,-0.9681 -2.578117,-2.158204 V 3.5970065 c 0,-1.1901038 1.156457,-2.1582039 2.578117,-2.1582039 h 13.40626 c 1.42166,0 2.57812,0.9681001 2.57812,2.1582039 z m 0,0"
     id="path2"
     style="fill:#ececec;stroke-width:0.039314" />
  <ellipse
     style="fill:#ececec;stroke-width:2.5188"
     id="path15614"
     cx="10.921877"
     cy="9.1666737"
     rx="5.859375"
     ry="4.96875" />
</svg>
