<?xml version="1.0" encoding="UTF-8" standalone="no"?>
<!-- Created with Inkscape (http://www.inkscape.org/) -->

<svg
   width="6.6145759mm"
   height="7.9374275mm"
   viewBox="0 0 6.6145757 7.9374273"
   version="1.1"
   id="svg43"
   inkscape:version="1.1 (c68e22c387, 2021-05-23)"
   sodipodi:docname="Intercom_gray.svg"
   xmlns:inkscape="http://www.inkscape.org/namespaces/inkscape"
   xmlns:sodipodi="http://sodipodi.sourceforge.net/DTD/sodipodi-0.dtd"
   xmlns="http://www.w3.org/2000/svg"
   xmlns:svg="http://www.w3.org/2000/svg">
  <sodipodi:namedview
     id="namedview45"
     pagecolor="#ffffff"
     bordercolor="#666666"
     borderopacity="1.0"
     inkscape:pageshadow="2"
     inkscape:pageopacity="0.0"
     inkscape:pagecheckerboard="0"
     inkscape:document-units="mm"
     showgrid="false"
     fit-margin-top="0"
     fit-margin-left="0"
     fit-margin-right="0"
     fit-margin-bottom="0"
     inkscape:zoom="4"
     inkscape:cx="-9.875"
     inkscape:cy="83.875"
     inkscape:window-width="1482"
     inkscape:window-height="1013"
     inkscape:window-x="420"
     inkscape:window-y="0"
     inkscape:window-maximized="0"
     inkscape:current-layer="layer1" />
  <defs
     id="defs40" />
  <g
     inkscape:label="Layer 1"
     inkscape:groupmode="layer"
     id="layer1"
     transform="translate(-47.018994,-117.3196)">
    <path
       style="display:inline;fill:#4d4d4d;stroke-width:0.0178707"
       d="m 47.572959,125.23475 c -0.217255,-0.0396 -0.398268,-0.15458 -0.499665,-0.31724 l -0.0543,-0.0871 v -3.54148 -3.54148 l 0.0543,-0.0871 c 0.103511,-0.16605 0.282635,-0.2779 0.50933,-0.31802 0.171259,-0.0303 5.316057,-0.0303 5.487316,0 0.226692,0.04 0.405813,0.15197 0.50933,0.31802 l 0.0543,0.0871 v 3.54148 3.54148 l -0.0543,0.0871 c -0.103513,0.16607 -0.282638,0.27792 -0.50933,0.31806 -0.1644,0.0292 -5.337282,0.0283 -5.496981,-8.4e-4 z m 5.486337,-0.29143 c 0.08755,-0.0362 0.166451,-0.10968 0.192153,-0.17926 0.02964,-0.0803 0.02964,-6.87001 0,-6.95026 -0.0257,-0.0697 -0.1046,-0.14325 -0.192153,-0.17928 -0.05999,-0.0247 -0.251719,-0.0266 -2.733015,-0.0266 -2.481296,0 -2.673025,8.6e-4 -2.733013,0.0266 -0.08755,0.0361 -0.166453,0.10968 -0.192155,0.17928 -0.02964,0.0803 -0.02964,6.87 0,6.95026 0.03677,0.0996 0.140541,0.1742 0.277276,0.19934 0.03401,0.006 1.244099,0.0112 2.689106,0.007 2.43872,-8.5e-4 2.631914,-0.004 2.691801,-0.029 z m -4.543868,-0.91687 c -0.06893,-0.0551 -0.06758,-0.1383 0.0031,-0.1915 0.16138,-0.12135 0.40519,0.0407 0.268753,0.17849 -0.05983,0.0604 -0.203973,0.0673 -0.271903,0.0135 z m 0.772073,-0.0112 c -0.06093,-0.0545 -0.06623,-0.0902 -0.0228,-0.15328 0.05956,-0.0865 0.232233,-0.0942 0.307373,-0.0135 0.132353,0.14204 -0.136132,0.29953 -0.284576,0.16685 z m 0.780266,0.0101 c -0.08863,-0.0668 -0.06205,-0.17314 0.05458,-0.21853 0.124949,-0.0486 0.265765,0.019 0.265765,0.12765 0,0.1176 -0.206823,0.17629 -0.320333,0.0908 z m 1.582116,0.012 c -0.126456,-0.0336 -0.298656,-0.15797 -0.355535,-0.2567 -0.07347,-0.12751 -0.06671,-0.27543 0.01852,-0.40567 0.07079,-0.10812 0.160659,-0.17456 0.311597,-0.2302 0.07212,-0.0265 0.129346,-0.0342 0.257579,-0.0342 0.128227,0 0.18545,0.007 0.257575,0.0342 0.150939,0.0556 0.240799,0.1221 0.311597,0.2302 0.08524,0.13019 0.092,0.27816 0.01852,0.40567 -0.05897,0.1024 -0.22979,0.22325 -0.36397,0.25767 -0.119937,0.0307 -0.338543,0.0303 -0.455892,-8.6e-4 z m 0.422062,-0.32113 c 0.153558,-0.12599 0.03737,-0.32463 -0.189898,-0.32463 -0.216793,0 -0.340313,0.1923 -0.202592,0.31542 0.07097,0.0634 0.119775,0.0784 0.232793,0.0709 0.07382,-0.004 0.1054,-0.0171 0.159697,-0.0616 z m -3.531687,-0.18748 c -0.138715,-0.0731 -0.06253,-0.25599 0.106624,-0.25599 0.06953,0 0.151434,0.0466 0.17462,0.0995 0.05466,0.12449 -0.138148,0.23183 -0.281239,0.15643 z m 0.754131,-0.0224 c -0.06704,-0.0504 -0.0748,-0.0901 -0.03029,-0.15474 0.08637,-0.12555 0.340973,-0.0779 0.340973,0.0641 0,0.12869 -0.187486,0.18344 -0.310677,0.0907 z m 0.776148,-8.5e-4 c -0.07227,-0.0647 -0.0699,-0.12824 0.0069,-0.18598 0.0411,-0.0309 0.08087,-0.0454 0.125219,-0.0454 0.08256,0 0.185456,0.0731 0.185456,0.13155 0,0.088 -0.07462,0.1461 -0.188775,0.14684 -0.05938,4e-4 -0.08679,-0.008 -0.128788,-0.0473 z m -1.523469,-0.48131 c -0.0209,-0.0101 -0.05114,-0.0403 -0.06724,-0.0692 -0.05013,-0.0903 0.03281,-0.19217 0.156422,-0.19217 0.07491,0 0.159757,0.0434 0.183095,0.0937 0.02696,0.0582 -0.01112,0.14204 -0.07664,0.16837 -0.0526,0.0212 -0.146249,0.0208 -0.195637,-7.9e-4 z m 0.755675,-0.0196 c -0.04584,-0.0296 -0.05735,-0.0503 -0.05735,-0.1025 0,-0.0522 0.0115,-0.0727 0.05735,-0.10251 0.124613,-0.0806 0.300214,-0.02 0.301668,0.10408 0.0012,0.11976 -0.179109,0.17992 -0.301668,0.10071 z m 0.774679,-0.007 c -0.0411,-0.0309 -0.06023,-0.0607 -0.06023,-0.0941 0,-0.0668 0.09683,-0.1395 0.185456,-0.1395 0.08863,0 0.185454,0.0728 0.185454,0.1395 0,0.0668 -0.09682,0.1395 -0.185454,0.1395 -0.04435,0 -0.08413,-0.015 -0.125221,-0.0452 z m -1.519036,-0.4824 c -0.02601,-0.007 -0.06091,-0.0389 -0.07755,-0.0688 -0.02635,-0.0474 -0.02645,-0.0613 -8.11e-4,-0.10756 0.06553,-0.11796 0.267772,-0.1188 0.333004,-8.5e-4 0.0671,0.12076 -0.08694,0.22818 -0.254627,0.17756 z m 0.76531,-0.0135 c -0.146638,-0.0673 -0.08004,-0.24905 0.09121,-0.24905 0.06327,0 0.161275,0.0389 0.177352,0.0705 0.0324,0.0634 0.01291,0.12827 -0.0506,0.16841 -0.07553,0.0478 -0.130371,0.0503 -0.217969,0.0112 z m 0.753726,-0.0154 c -0.0411,-0.0309 -0.06023,-0.0607 -0.06023,-0.0941 0,-0.0668 0.09683,-0.13949 0.185456,-0.13949 0.08863,0 0.185454,0.0727 0.185454,0.13949 0,0.0668 -0.09682,0.13951 -0.185454,0.13951 -0.04435,0 -0.08413,-0.015 -0.125221,-0.0453 z m -1.88345,-0.7363 c -0.02706,-0.0203 -0.05497,-0.0604 -0.06203,-0.0891 -0.0071,-0.0287 -0.01,-0.24202 -0.0065,-0.47412 l 0.0063,-0.42203 0.05713,-0.043 0.05713,-0.043 h 2.080285 2.080287 l 0.05713,0.043 0.05713,0.043 0.0063,0.42203 c 0.0035,0.2321 5.31e-4,0.44545 -0.0065,0.47412 -0.0071,0.0287 -0.03497,0.0689 -0.06203,0.0891 l -0.04922,0.0371 h -2.082972 -2.083096 z m 0.78022,-0.2691 c 0.05397,-0.13697 0.177537,-0.48292 0.177537,-0.4972 0,-0.0135 -0.08923,-0.0182 -0.319396,-0.0182 H 48.51294 v 0.27123 0.27124 h 0.225277 c 0.19674,0 0.226636,-0.003 0.235975,-0.0272 z m 0.784804,-0.0541 c 0.01728,-0.0448 0.06258,-0.16681 0.100599,-0.27124 l 0.06916,-0.18985 -0.187597,7e-5 -0.1876,1e-4 -0.0908,0.25178 c -0.04994,0.13843 -0.09498,0.26048 -0.100088,0.27114 -0.0069,0.015 0.03693,0.0193 0.177805,0.0193 h 0.187084 z m 1.46148,0.0541 c 0.04958,-0.1233 0.17723,-0.48063 0.177273,-0.49623 4.1e-5,-0.0154 -0.114813,-0.0187 -0.538994,-0.0154 l -0.539043,0.004 -0.03804,0.10082 c -0.02093,0.0553 -0.06503,0.17575 -0.09802,0.26737 l -0.05999,0.16662 h 0.542958 c 0.499212,0 0.54384,-8.6e-4 0.553867,-0.0272 z m 0.919147,-0.24474 v -0.27187 l -0.169868,0.004 -0.169869,0.004 -0.09735,0.26349 c -0.05353,0.14488 -0.09764,0.26521 -0.09801,0.26734 -3.65e-4,8.5e-4 0.119887,0.004 0.267217,0.004 h 0.26788 z m -2.14304,-0.93012 c -0.503121,-0.0811 -0.948566,-0.36176 -1.141693,-0.71925 -0.1775,-0.32855 -0.146139,-0.72899 0.08076,-1.0313 0.202273,-0.2695 0.516001,-0.46296 0.913253,-0.56318 0.142631,-0.036 0.189011,-0.0397 0.477376,-0.0397 0.288363,0 0.334744,0.004 0.477375,0.0397 0.64692,0.16322 1.071439,0.57688 1.103626,1.07545 0.02304,0.35692 -0.132978,0.66656 -0.459717,0.91233 -0.375089,0.2821 -0.938312,0.40862 -1.450982,0.32595 z m 0.685676,-0.29971 c 0.502518,-0.13214 0.81905,-0.43378 0.852596,-0.81229 0.05442,-0.61412 -0.712612,-1.09366 -1.505385,-0.94116 -0.225848,0.0433 -0.390902,0.1146 -0.558555,0.24053 -0.485744,0.3651 -0.474827,0.94282 0.02463,1.30404 0.150664,0.1089 0.421501,0.21137 0.64527,0.24399 0.110375,0.016 0.424158,-0.004 0.541433,-0.035 z m -0.539202,-0.18895 c -0.474193,-0.0701 -0.807995,-0.43412 -0.72712,-0.79307 0.129427,-0.57445 1.079016,-0.78568 1.594273,-0.35463 0.590486,0.49399 -1.86e-4,1.27576 -0.867153,1.1477 z m 0.41233,-0.31173 c 0.266592,-0.0841 0.395734,-0.34474 0.268661,-0.5422 -0.0891,-0.13843 -0.305864,-0.24522 -0.497767,-0.24522 -0.191902,0 -0.408665,0.10676 -0.497768,0.24522 -0.120887,0.18787 -0.01013,0.43663 0.236971,0.5322 0.159453,0.0616 0.316018,0.065 0.489903,0.0112 z"
       id="path2330" />
  </g>
</svg>
