<?xml version="1.0" encoding="UTF-8" standalone="no"?>
<!-- Created with Inkscape (http://www.inkscape.org/) -->

<svg
   width="11.90625mm"
   height="10.58334mm"
   viewBox="0 0 11.90625 10.58334"
   version="1.1"
   id="svg32479"
   inkscape:version="1.1 (c68e22c387, 2021-05-23)"
   sodipodi:docname="Doo_Open.svg"
   xmlns:inkscape="http://www.inkscape.org/namespaces/inkscape"
   xmlns:sodipodi="http://sodipodi.sourceforge.net/DTD/sodipodi-0.dtd"
   xmlns="http://www.w3.org/2000/svg"
   xmlns:svg="http://www.w3.org/2000/svg">
  <sodipodi:namedview
     id="namedview32481"
     pagecolor="#ffffff"
     bordercolor="#666666"
     borderopacity="1.0"
     inkscape:pageshadow="2"
     inkscape:pageopacity="0.0"
     inkscape:pagecheckerboard="0"
     inkscape:document-units="mm"
     showgrid="false"
     fit-margin-top="0"
     fit-margin-left="0"
     fit-margin-right="0"
     fit-margin-bottom="0"
     inkscape:zoom="2.9362514"
     inkscape:cx="56.023813"
     inkscape:cy="-60.110657"
     inkscape:window-width="3200"
     inkscape:window-height="1733"
     inkscape:window-x="-9"
     inkscape:window-y="-9"
     inkscape:window-maximized="1"
     inkscape:current-layer="layer1" />
  <defs
     id="defs32476" />
  <g
     inkscape:label="Layer 1"
     inkscape:groupmode="layer"
     id="layer1"
     transform="translate(-79.830856,-151.13794)">
    <path
       id="path32455"
       style="display:inline;fill:#ffffff;stroke-width:0.0178365"
       d="m 85.780898,152.02356 c -0.168037,4e-5 -0.334616,0.0105 -0.441175,0.0314 -0.49476,0.0971 -0.87141,0.28617 -1.220925,0.61235 -0.27571,0.25731 -0.455386,0.52351 -0.569122,0.84279 -0.112094,0.31468 -0.115965,0.34942 -0.124929,1.11087 l -0.0084,0.70192 -0.187696,3.1e-4 c -0.335183,4.5e-4 -0.532016,0.0685 -0.727244,0.25066 -0.128045,0.11949 -0.213488,0.26547 -0.244728,0.41922 -0.02583,0.1271 -0.02583,4.04674 0,4.17384 0.06185,0.30435 0.334119,0.56936 0.660252,0.64314 0.08763,0.0198 0.575582,0.0243 2.84953,0.0255 1.755157,9e-4 2.77988,-0.005 2.843496,-0.0159 0.165619,-0.0287 0.349938,-0.12445 0.467428,-0.24289 0.121298,-0.12227 0.184692,-0.23083 0.222701,-0.38128 0.0409,-0.16186 0.0409,-4.0692 0,-4.23107 -0.06007,-0.23775 -0.2323,-0.44312 -0.458678,-0.54672 -0.160623,-0.0735 -0.275565,-0.0949 -0.511485,-0.0949 h -0.180451 v -0.007 h -0.593888 v 0.007 h -1.772573 -1.772546 v -0.61795 c 0,-0.68434 0.01236,-0.80301 0.11135,-1.05831 0.156625,-0.40396 0.532909,-0.77451 0.95779,-0.94325 0.421473,-0.16738 0.886015,-0.17898 1.317488,-0.0333 0.463862,0.15664 0.879076,0.5439 1.046812,0.97652 0.0367,0.0947 0.06146,0.17051 0.07816,0.26341 h 0.596581 c -0.01584,-0.15021 -0.04504,-0.23838 -0.102598,-0.39993 -0.113734,-0.31929 -0.293411,-0.58549 -0.569121,-0.8428 -0.346666,-0.32352 -0.748001,-0.52566 -1.215796,-0.61234 -0.112619,-0.0209 -0.282193,-0.0315 -0.450228,-0.0314 z m -0.911016,3.85944 c 0.264814,-8e-5 0.567421,0 0.913129,0 2.765655,0 2.766879,-6e-5 2.817845,0.0354 0.02804,0.0195 0.06808,0.0572 0.08902,0.0833 0.03794,0.0474 0.03802,0.0539 0.03802,2.07806 0,2.02413 -7.7e-5,2.03094 -0.03802,2.07837 -0.02094,0.0262 -0.06097,0.0635 -0.08902,0.083 -0.0509,0.0355 -0.05548,0.0358 -2.796119,0.0395 -2.253993,0.003 -2.755321,-4.2e-4 -2.80155,-0.0193 -0.07435,-0.0303 -0.151785,-0.11846 -0.165063,-0.18753 -0.0059,-0.0305 -0.0083,-0.94859 -0.0054,-2.04012 0.0053,-1.9737 0.0056,-1.98471 0.04345,-2.03203 0.02094,-0.0262 0.06098,-0.0638 0.08902,-0.0833 0.04459,-0.0311 0.05102,-0.035 1.904717,-0.0354 z m 0.911016,0.91463 c -0.537985,-9.6e-4 -0.963471,0.52892 -0.701293,1.05178 0.06494,0.1295 0.212437,0.27421 0.330127,0.32374 l 0.07785,0.0327 v 0.46587 c 0,0.4343 0.0024,0.47064 0.03773,0.53864 0.03855,0.0743 0.09674,0.12102 0.182264,0.14617 0.120872,0.0356 0.27331,-0.031 0.332541,-0.14523 0.03579,-0.069 0.03833,-0.10368 0.03833,-0.53958 v -0.46587 l 0.07755,-0.0327 c 0.190471,-0.0802 0.368852,-0.3197 0.402247,-0.54019 0.04749,-0.31358 -0.132623,-0.63012 -0.433027,-0.76131 -0.1162,-0.0507 -0.232651,-0.0738 -0.34431,-0.074 z" />
    <rect
       style="display:inline;fill:#e22028;fill-opacity:1;stroke:none;stroke-width:0.110908;stroke-opacity:1"
       id="rect31235"
       width="11.90625"
       height="10.583333"
       x="79.830887"
       y="151.13795" />
    <path
       id="path31867"
       style="display:inline;fill:#ffffff;stroke-width:0.0179491"
       d="m 85.780898,152.02357 c -0.170163,4e-5 -0.338851,0.0105 -0.446759,0.0314 -0.501022,0.0971 -0.88244,0.28616 -1.23638,0.61235 -0.2792,0.2573 -0.46115,0.52351 -0.576325,0.84279 -0.113513,0.31468 -0.117434,0.34942 -0.126512,1.11087 l -0.0086,0.70191 -0.190072,3.1e-4 c -0.339426,4.6e-4 -0.538751,0.0685 -0.73645,0.25067 -0.129666,0.11949 -0.21619,0.26547 -0.247826,0.41921 -0.02616,0.12711 -0.02616,4.04675 0,4.17385 0.06263,0.30434 0.338349,0.56936 0.66861,0.64314 0.08874,0.0198 0.582868,0.0243 2.8856,0.0255 1.777374,9e-4 2.815068,-0.005 2.87949,-0.0159 0.167714,-0.0287 0.354367,-0.12446 0.473345,-0.24289 0.122835,-0.12227 0.187031,-0.23084 0.225521,-0.38128 0.04139,-0.16187 0.04139,-4.0692 0,-4.23107 -0.06083,-0.23775 -0.235242,-0.44312 -0.464485,-0.54673 -0.162657,-0.0735 -0.279054,-0.0949 -0.51796,-0.0949 h -0.182736 v -0.007 h -0.601384 v 0.007 h -1.794937 -1.794982 v -0.61795 c 0,-0.68435 0.01252,-0.80301 0.112759,-1.05831 0.158607,-0.40396 0.539654,-0.77452 0.969913,-0.94325 0.426808,-0.16738 0.897231,-0.17898 1.334166,-0.0333 0.469732,0.15664 0.890202,0.5439 1.060062,0.97652 0.03716,0.0947 0.06224,0.17051 0.07914,0.26341 h 0.604133 c -0.01604,-0.15022 -0.04561,-0.23838 -0.103897,-0.39994 -0.115174,-0.31928 -0.297125,-0.58548 -0.576324,-0.84279 -0.351055,-0.32352 -0.757471,-0.52567 -1.231186,-0.61235 -0.114045,-0.0209 -0.285765,-0.0314 -0.455928,-0.0314 z M 84.85835,155.883 c 0.268167,-7e-5 0.574604,0 0.924688,0 2.800663,0 2.801903,-6e-5 2.853515,0.0354 0.0284,0.0195 0.06895,0.0572 0.09015,0.0834 0.03842,0.0474 0.0385,0.0539 0.0385,2.07806 0,2.02414 -7.8e-5,2.03095 -0.0385,2.07837 -0.02121,0.0262 -0.06175,0.0635 -0.09015,0.083 -0.05155,0.0355 -0.05618,0.0358 -2.831514,0.0395 -2.282524,0.003 -2.790197,-4.1e-4 -2.837012,-0.0193 -0.07529,-0.0303 -0.153707,-0.11845 -0.167153,-0.18753 -0.006,-0.0305 -0.0085,-0.94858 -0.0055,-2.04011 0.0054,-1.97371 0.0057,-1.98472 0.044,-2.03204 0.0212,-0.0262 0.06175,-0.0638 0.09015,-0.0834 0.04516,-0.0311 0.05166,-0.035 1.928828,-0.0354 z m 0.922548,0.91463 c -0.544794,-9.6e-4 -0.975667,0.52892 -0.71017,1.05179 0.06576,0.1295 0.215126,0.27421 0.334306,0.32374 l 0.07884,0.0326 v 0.46587 c 0,0.4343 0.0025,0.47064 0.0382,0.53864 0.03904,0.0743 0.09796,0.12102 0.18457,0.14617 0.122403,0.0356 0.27677,-0.031 0.336751,-0.14524 0.03624,-0.069 0.03881,-0.10367 0.03881,-0.53957 v -0.46587 l 0.07854,-0.0326 c 0.192882,-0.0802 0.37352,-0.3197 0.407338,-0.54019 0.04809,-0.31359 -0.134301,-0.63013 -0.438508,-0.76132 -0.117671,-0.0507 -0.235597,-0.0738 -0.348668,-0.074 z" />
  </g>
</svg>
