<?xml version="1.0" encoding="UTF-8" standalone="no"?>
<!-- Created with Inkscape (http://www.inkscape.org/) -->

<svg
   width="11.90625mm"
   height="10.58334mm"
   viewBox="0 0 11.90625 10.58334"
   version="1.1"
   id="svg32479"
   inkscape:version="1.1 (c68e22c387, 2021-05-23)"
   sodipodi:docname="Intercom_Active.svg"
   xmlns:inkscape="http://www.inkscape.org/namespaces/inkscape"
   xmlns:sodipodi="http://sodipodi.sourceforge.net/DTD/sodipodi-0.dtd"
   xmlns="http://www.w3.org/2000/svg"
   xmlns:svg="http://www.w3.org/2000/svg">
  <sodipodi:namedview
     id="namedview32481"
     pagecolor="#ffffff"
     bordercolor="#666666"
     borderopacity="1.0"
     inkscape:pageshadow="2"
     inkscape:pageopacity="0.0"
     inkscape:pagecheckerboard="0"
     inkscape:document-units="mm"
     showgrid="false"
     fit-margin-top="0"
     fit-margin-left="0"
     fit-margin-right="0"
     fit-margin-bottom="0"
     inkscape:zoom="2.9362514"
     inkscape:cx="56.023813"
     inkscape:cy="-60.110657"
     inkscape:window-width="1920"
     inkscape:window-height="1013"
     inkscape:window-x="4791"
     inkscape:window-y="-9"
     inkscape:window-maximized="1"
     inkscape:current-layer="layer1" />
  <defs
     id="defs32476" />
  <g
     inkscape:label="Layer 1"
     inkscape:groupmode="layer"
     id="layer1"
     transform="translate(-79.830856,-151.13794)">
    <rect
       style="display:inline;fill:#4d4dff;fill-opacity:1;stroke:none;stroke-width:0.110908;stroke-opacity:1"
       id="rect34465"
       width="11.90625"
       height="10.583333"
       x="79.824936"
       y="151.16272"
       ry="0.15338202" />
    <path
       style="display:inline;fill:#ffffff;stroke-width:0.0171224"
       d="m 83.370872,160.59808 c -0.189941,-0.0416 -0.3482,-0.1623 -0.436851,-0.33309 l -0.04747,-0.0915 v -3.71847 -3.71848 l 0.04747,-0.0915 c 0.0905,-0.17435 0.247106,-0.29178 0.445301,-0.33392 0.14973,-0.0318 4.647755,-0.0318 4.797485,0 0.198195,0.0421 0.354796,0.15957 0.4453,0.33392 l 0.04747,0.0915 v 3.71848 3.71848 l -0.04747,0.0915 c -0.0905,0.17435 -0.247105,0.29178 -0.4453,0.33392 -0.143731,0.0306 -4.666311,0.0298 -4.805935,-8.4e-4 z M 88.1675,160.2921 c 0.07654,-0.0378 0.145527,-0.11514 0.167999,-0.18823 0.02591,-0.0843 0.02591,-7.21335 0,-7.29762 -0.02247,-0.0731 -0.09146,-0.15038 -0.167999,-0.18824 -0.05245,-0.0259 -0.220073,-0.0279 -2.389436,-0.0279 -2.169362,0 -2.336988,0.002 -2.389436,0.0279 -0.07654,0.0379 -0.145527,0.11515 -0.167998,0.18824 -0.02591,0.0843 -0.02591,7.21335 0,7.29762 0.03215,0.10458 0.122873,0.18291 0.242419,0.2093 0.02973,0.007 1.087697,0.0108 2.351047,0.009 2.132141,-0.002 2.301048,-0.005 2.353404,-0.0305 z m -3.97264,-0.96269 c -0.06027,-0.0579 -0.05908,-0.14523 0.0028,-0.20109 0.141091,-0.12744 0.35425,0.0426 0.234966,0.18742 -0.05232,0.0635 -0.178332,0.0708 -0.237722,0.0137 z m 0.675014,-0.0115 c -0.05327,-0.0572 -0.05791,-0.0946 -0.01993,-0.16094 0.05207,-0.091 0.203037,-0.099 0.268731,-0.0142 0.115713,0.14923 -0.119018,0.31449 -0.2488,0.17517 z m 0.682175,0.0101 c -0.0775,-0.07 -0.05425,-0.1818 0.04771,-0.22943 0.109249,-0.051 0.232355,0.02 0.232355,0.13399 0,0.12346 -0.180822,0.18508 -0.280062,0.0954 z m 1.383223,0.0128 c -0.110566,-0.0353 -0.261111,-0.16588 -0.310841,-0.26952 -0.06423,-0.13387 -0.05833,-0.28921 0.0162,-0.42595 0.0619,-0.11357 0.140461,-0.18328 0.272424,-0.24172 0.06306,-0.0279 0.113091,-0.0359 0.225196,-0.0359 0.112106,0 0.162137,0.008 0.225196,0.0359 0.131964,0.0584 0.210529,0.12815 0.272425,0.24172 0.07452,0.13674 0.08043,0.29208 0.0162,0.42595 -0.05156,0.10746 -0.200901,0.23442 -0.318214,0.27053 -0.104859,0.0323 -0.295983,0.0318 -0.398579,-0.001 z m 0.369003,-0.33717 c 0.134253,-0.13233 0.03268,-0.34087 -0.166027,-0.34087 -0.189539,0 -0.297531,0.20192 -0.177122,0.33118 0.06206,0.0666 0.104716,0.0822 0.203527,0.0744 0.06454,-0.005 0.09215,-0.0179 0.139622,-0.0647 z m -3.087706,-0.19687 c -0.121276,-0.0767 -0.05467,-0.26876 0.09322,-0.26876 0.06078,0 0.132395,0.049 0.152666,0.1045 0.04779,0.1308 -0.120781,0.24341 -0.245883,0.16426 z m 0.659325,-0.0234 c -0.05861,-0.053 -0.06539,-0.0945 -0.02649,-0.1625 0.07549,-0.13187 0.298108,-0.0817 0.298108,0.0672 0,0.13509 -0.163916,0.19261 -0.271621,0.0953 z m 0.678576,-0.002 c -0.06318,-0.0678 -0.06112,-0.13464 0.006,-0.19528 0.03594,-0.0325 0.0707,-0.0476 0.10948,-0.0476 0.07218,0 0.162141,0.0766 0.162141,0.13814 0,0.0925 -0.06525,0.15348 -0.165043,0.15426 -0.05192,4.1e-4 -0.07588,-0.0101 -0.112598,-0.0496 z m -1.331947,-0.50538 c -0.01827,-0.01 -0.04472,-0.0423 -0.05879,-0.0727 -0.04384,-0.0948 0.02868,-0.20176 0.136757,-0.20176 0.06549,0 0.139673,0.0457 0.160077,0.0985 0.02356,0.061 -0.0098,0.14917 -0.067,0.17681 -0.04599,0.0222 -0.127863,0.0218 -0.171043,-8.5e-4 z m 0.660675,-0.0205 c -0.04008,-0.0311 -0.05014,-0.0527 -0.05014,-0.10751 0,-0.0548 0.01006,-0.0764 0.05014,-0.1075 0.108946,-0.0847 0.262474,-0.021 0.263744,0.10935 0.0012,0.12569 -0.156592,0.18891 -0.263744,0.10566 z m 0.677292,-0.009 c -0.03594,-0.0325 -0.05266,-0.0639 -0.05266,-0.0989 0,-0.07 0.08464,-0.14646 0.162141,-0.14646 0.0775,0 0.162141,0.0764 0.162141,0.14646 0,0.07 -0.08464,0.14646 -0.162141,0.14646 -0.03878,0 -0.07354,-0.0151 -0.10948,-0.0476 z m -1.328071,-0.5065 c -0.02274,-0.008 -0.05325,-0.0407 -0.0678,-0.0722 -0.02304,-0.0498 -0.02313,-0.0644 -7.24e-4,-0.11286 0.05729,-0.12385 0.23411,-0.12469 0.291142,-0.001 0.05866,0.1268 -0.07601,0.23959 -0.222617,0.18645 z m 0.6691,-0.0144 c -0.128204,-0.0706 -0.06999,-0.2615 0.07975,-0.2615 0.05531,0 0.140999,0.0409 0.155054,0.074 0.02832,0.0667 0.01132,0.1346 -0.04424,0.17683 -0.06604,0.0502 -0.113984,0.0529 -0.190567,0.0107 z m 0.658971,-0.0161 c -0.03594,-0.0325 -0.05266,-0.0639 -0.05266,-0.0989 0,-0.07 0.08464,-0.14646 0.162141,-0.14646 0.0775,0 0.162141,0.0764 0.162141,0.14646 0,0.07 -0.08464,0.14646 -0.162141,0.14646 -0.03878,0 -0.07354,-0.0151 -0.10948,-0.0476 z m -1.646674,-0.77243 c -0.02366,-0.0214 -0.04807,-0.0635 -0.05423,-0.0936 -0.0062,-0.0301 -0.0087,-0.2541 -0.0057,-0.49781 l 0.0055,-0.44311 0.04995,-0.0451 0.04995,-0.0451 h 1.818765 1.818766 l 0.04995,0.0451 0.04995,0.0451 0.0055,0.44311 c 0.003,0.24371 4.64e-4,0.46773 -0.0057,0.49781 -0.0062,0.0301 -0.03057,0.0722 -0.05423,0.0936 l -0.04303,0.0389 h -1.821222 -1.821222 z m 0.682136,-0.28253 c 0.04719,-0.14372 0.155218,-0.50706 0.155218,-0.52205 0,-0.0137 -0.07801,-0.019 -0.279243,-0.019 h -0.279243 v 0.28479 0.28478 h 0.196958 c 0.172007,0 0.198144,-0.004 0.20631,-0.0285 z m 0.686143,-0.057 c 0.01512,-0.047 0.0547,-0.17514 0.08795,-0.28478 l 0.06046,-0.19935 -0.164015,8e-5 -0.164016,8e-5 -0.07939,0.26436 c -0.04366,0.1454 -0.08304,0.27352 -0.0875,0.2847 -0.0061,0.0153 0.03228,0.0203 0.155453,0.0203 h 0.163565 l 0.02749,-0.0854 z m 1.277751,0.057 c 0.04335,-0.12947 0.15495,-0.50464 0.154987,-0.52102 3.6e-5,-0.0162 -0.100377,-0.0197 -0.471233,-0.0163 l -0.471279,0.004 -0.03326,0.10578 c -0.01829,0.0582 -0.05686,0.1845 -0.08571,0.28071 l -0.05245,0.17494 h 0.474702 c 0.436454,0 0.47547,-0.002 0.484237,-0.0285 z m 0.803598,-0.25696 v -0.28546 l -0.148513,0.005 -0.148513,0.005 -0.08511,0.27665 c -0.04681,0.15216 -0.08537,0.27848 -0.08569,0.28072 -3.18e-4,0.002 0.104812,0.004 0.233625,0.004 h 0.234203 z m -1.873631,-0.97661 c -0.439871,-0.0852 -0.829317,-0.37984 -0.998166,-0.7552 -0.155184,-0.34497 -0.127767,-0.76542 0.07061,-1.08284 0.176842,-0.28296 0.451131,-0.4861 0.798443,-0.59132 0.124701,-0.0378 0.165251,-0.0418 0.417363,-0.0418 0.252113,0 0.292663,0.004 0.417363,0.0418 0.565594,0.17136 0.936744,0.60571 0.964887,1.12919 0.02015,0.37476 -0.116265,0.69987 -0.401925,0.9579 -0.327937,0.29623 -0.820355,0.42908 -1.268575,0.34227 z m 0.599478,-0.31468 c 0.439343,-0.13881 0.716084,-0.45546 0.745412,-0.85291 0.04758,-0.6448 -0.623026,-1.14831 -1.316136,-0.98818 -0.197457,0.0456 -0.341761,0.12025 -0.488336,0.25255 -0.424681,0.38334 -0.415137,0.98996 0.02154,1.36921 0.131722,0.1144 0.368512,0.22193 0.56415,0.25619 0.0965,0.0169 0.370836,-0.005 0.473368,-0.0369 z m -0.471416,-0.1984 c -0.414581,-0.0735 -0.70642,-0.45582 -0.635712,-0.83271 0.113159,-0.60316 0.943369,-0.82495 1.39385,-0.37236 0.516254,0.51867 -1.63e-4,1.33953 -0.758138,1.20507 z m 0.360492,-0.32732 c 0.233079,-0.0883 0.345986,-0.36197 0.234889,-0.56928 -0.0779,-0.14536 -0.267414,-0.25749 -0.435192,-0.25749 -0.167778,0 -0.357289,0.11213 -0.435192,0.25749 -0.1057,0.19723 -0.0089,0.45843 0.207181,0.55878 0.139408,0.0648 0.27629,0.0681 0.428314,0.0105 z"
       id="path35019" />
  </g>
</svg>
