<?xml version="1.0" encoding="UTF-8" standalone="no"?>
<!-- Created with Inkscape (http://www.inkscape.org/) -->

<svg
   width="9.2604151mm"
   height="9.2610731mm"
   viewBox="0 0 9.2604148 9.2610729"
   version="1.1"
   id="svg43"
   inkscape:version="1.1 (c68e22c387, 2021-05-23)"
   sodipodi:docname="CCTV.svg"
   xmlns:inkscape="http://www.inkscape.org/namespaces/inkscape"
   xmlns:sodipodi="http://sodipodi.sourceforge.net/DTD/sodipodi-0.dtd"
   xmlns="http://www.w3.org/2000/svg"
   xmlns:svg="http://www.w3.org/2000/svg">
  <sodipodi:namedview
     id="namedview45"
     pagecolor="#ffffff"
     bordercolor="#666666"
     borderopacity="1.0"
     inkscape:pageshadow="2"
     inkscape:pageopacity="0.0"
     inkscape:pagecheckerboard="0"
     inkscape:document-units="mm"
     showgrid="false"
     fit-margin-top="0"
     fit-margin-left="0"
     fit-margin-right="0"
     fit-margin-bottom="0"
     inkscape:zoom="4"
     inkscape:cx="-61.625"
     inkscape:cy="87.375"
     inkscape:window-width="1920"
     inkscape:window-height="1013"
     inkscape:window-x="4791"
     inkscape:window-y="-9"
     inkscape:window-maximized="1"
     inkscape:current-layer="layer1" />
  <defs
     id="defs40" />
  <g
     inkscape:label="Layer 1"
     inkscape:groupmode="layer"
     id="layer1"
     transform="translate(-46.72568,-116.40864)">
    <path
       style="display:inline;fill:#f9f9f9;stroke-width:0.0196032"
       d="m 46.77202,125.61379 -0.04634,-0.0544 v -2.57177 c 0,-2.54346 4.08e-4,-2.57227 0.03616,-2.61429 0.03314,-0.0389 0.06029,-0.0424 0.323985,-0.0424 h 0.287813 l 0.114053,0.0694 c 0.200692,0.12196 0.305095,0.33953 0.305095,0.63563 v 0.14486 h 0.370783 c 0.346666,0 0.373136,0.003 0.406958,0.0426 0.03423,0.0402 0.03619,0.0708 0.03619,0.57365 v 0.53116 h 0.599289 c 0.407027,0 0.622072,-0.009 0.670289,-0.0249 0.122715,-0.043 0.217002,-0.16479 0.376889,-0.48604 0.08165,-0.16404 0.149501,-0.31362 0.150808,-0.33242 0.0014,-0.0228 -0.08986,-0.0969 -0.277973,-0.22465 -0.15419,-0.10486 -0.603601,-0.40985 -0.998692,-0.67802 -0.589516,-0.40013 -0.732652,-0.50622 -0.798106,-0.59176 -0.101197,-0.13225 -0.15622,-0.26946 -0.179974,-0.44893 -0.0352,-0.26595 -0.02488,-0.29277 0.614582,-1.59874 0.479298,-0.97886 0.589563,-1.18963 0.67373,-1.2879 0.226451,-0.26438 0.527014,-0.31915 0.814351,-0.14836 0.213297,0.12666 5.690331,3.85031 5.711695,3.88308 0.01267,0.0192 0.02249,0.0543 0.02249,0.0786 -1.14e-4,0.0427 -0.936301,1.96914 -0.985661,2.02822 -0.04144,0.0497 -0.121245,0.0308 -0.255643,-0.0601 -0.07028,-0.0475 -0.132092,-0.0864 -0.137363,-0.0864 -0.0051,0 -0.06164,0.0599 -0.125176,0.13321 -0.276206,0.31815 -0.699465,0.43283 -1.070008,0.28996 l -0.122002,-0.047 -0.04015,0.0441 c -0.02212,0.0242 -0.08502,0.0705 -0.139691,0.10283 -0.128349,0.076 -0.366045,0.0959 -0.504708,0.0427 -0.04917,-0.0189 -0.331107,-0.19819 -0.626543,-0.39842 -0.295444,-0.20025 -0.549473,-0.36525 -0.564515,-0.36662 -0.01719,-8.6e-4 -0.09284,0.12798 -0.203328,0.34804 -0.272465,0.54277 -0.44668,0.75681 -0.768746,0.94449 -0.316117,0.18422 -0.33862,0.18813 -1.134958,0.19761 l -0.700872,0.009 v 0.3915 c 0,0.36318 -0.0025,0.39459 -0.03619,0.434 -0.03382,0.0397 -0.06029,0.0424 -0.405333,0.0424 h -0.369162 l -0.0061,0.32399 c -0.0056,0.30456 -0.0092,0.33131 -0.05689,0.44544 -0.02832,0.0677 -0.08674,0.15861 -0.132135,0.20556 -0.12372,0.12797 -0.209372,0.15559 -0.516861,0.16701 l -0.26566,0.01 z m 0.578411,-0.28752 c 0.08955,-0.0479 0.166112,-0.15074 0.180109,-0.2422 0.0056,-0.0376 0.0081,-1.00615 0.0052,-2.15223 l -0.0052,-2.08381 -0.05066,-0.078 c -0.07462,-0.11489 -0.141526,-0.14666 -0.333575,-0.15849 l -0.167404,-0.01 v 2.38251 2.38249 l 0.149218,-4.6e-4 c 0.105464,-3.3e-4 0.170648,-0.013 0.222313,-0.0396 z m 1.003078,-2.47776 v -1.39165 h -0.280346 -0.28035 v 1.39165 1.39164 h 0.28035 0.280346 z m 1.781567,0.43015 c 0.213531,-0.0844 0.360565,-0.19429 0.533567,-0.39846 0.129034,-0.15228 0.181361,-0.23728 0.325567,-0.52889 0.0945,-0.19109 0.174193,-0.35459 0.177091,-0.36329 0.0053,-0.0157 -0.489473,-0.36119 -0.517137,-0.36119 -0.0079,0 -0.08715,0.14581 -0.176125,0.324 -0.178747,0.35803 -0.240646,0.44986 -0.366525,0.54373 -0.164558,0.12275 -0.220032,0.13088 -0.893112,0.13088 h -0.611675 v 0.36255 0.36255 l 0.691829,-0.006 0.691823,-0.006 z m 2.913762,-0.70644 c 0.04245,-0.0293 0.09532,-0.083 0.1173,-0.11909 0.05426,-0.0894 0.39648,-0.7856 0.39648,-0.80644 0,-0.01 -0.04676,-0.048 -0.10395,-0.0862 -0.05719,-0.0382 -1.11732,-0.75677 -2.355829,-1.59672 -1.238507,-0.83993 -2.259052,-1.52879 -2.267878,-1.5308 -0.027,-0.005 -0.405007,0.77558 -0.427919,0.88487 -0.03642,0.17377 0.0115,0.36469 0.124361,0.49536 0.02893,0.0335 0.50334,0.36624 1.054266,0.73944 0.550926,0.37319 1.441197,0.9766 1.978379,1.3409 0.537192,0.36428 1.003772,0.67861 1.036866,0.69855 0.138818,0.0834 0.308892,0.0759 0.448026,-0.0199 z m -3.66449,-2.79375 c -0.293397,-0.19859 -0.547687,-0.38133 -0.565097,-0.40604 -0.01741,-0.0248 -0.03164,-0.0634 -0.03164,-0.0861 0,-0.0536 0.0787,-0.14541 0.124462,-0.14541 0.03579,0 1.055034,0.67936 1.123324,0.74873 0.07462,0.0759 0.01878,0.24986 -0.08018,0.24986 -0.02056,0 -0.277458,-0.16251 -0.570854,-0.36113 z m 4.5678,2.72919 c 0.127141,-0.0387 0.272521,-0.13698 0.36241,-0.24511 l 0.06444,-0.0774 -0.269381,-0.18276 c -0.148171,-0.10056 -0.281203,-0.18809 -0.295652,-0.19459 -0.01893,-0.009 -0.07156,0.0803 -0.187096,0.31585 -0.08846,0.18022 -0.159899,0.3358 -0.158742,0.3457 0.0038,0.0291 0.149058,0.0669 0.267032,0.0691 0.06011,8.7e-4 0.157751,-0.0131 0.217036,-0.0305 z m 1.345591,-1.186 c 0.317218,-0.64599 0.380341,-0.78785 0.360199,-0.80949 -0.01355,-0.0143 -0.244182,-0.17447 -0.512765,-0.35562 -0.268595,-0.18114 -1.489465,-1.00834 -2.713042,-1.83817 -1.22359,-0.82987 -2.261332,-1.53127 -2.306096,-1.5587 -0.122905,-0.0752 -0.285799,-0.0706 -0.412812,0.0108 -0.05295,0.0343 -0.113995,0.0914 -0.135645,0.12681 -0.08645,0.14154 -0.624353,1.25592 -0.612621,1.26917 0.01136,0.013 0.50057,0.34534 3.385782,2.30165 2.711148,1.83827 2.518957,1.71179 2.541477,1.6725 0.0115,-0.0202 0.193996,-0.38895 0.405529,-0.81971 z m -0.806521,0.11203 c -0.159517,-0.0346 -0.296706,-0.16119 -0.361571,-0.33342 -0.0178,-0.0471 -0.03026,-0.13882 -0.03088,-0.2276 -0.0011,-0.12575 0.0065,-0.1662 0.05147,-0.26183 0.228282,-0.49044 0.851585,-0.35041 0.907465,0.20388 0.03685,0.36577 -0.256458,0.68633 -0.566406,0.61897 z m 0.185061,-0.31447 c 0.127724,-0.0681 0.171451,-0.24984 0.09303,-0.38651 -0.04968,-0.0867 -0.109044,-0.12484 -0.193894,-0.12523 -0.123778,-4.6e-4 -0.23512,0.13336 -0.23512,0.28261 0,0.0735 0.07231,0.18926 0.145049,0.2322 0.07842,0.0463 0.09913,0.0459 0.19092,-0.003 z"
       id="path152" />
  </g>
</svg>
