<?xml version="1.0" encoding="UTF-8" standalone="no"?>
<!-- Created with Inkscape (http://www.inkscape.org/) -->

<svg
   width="7.6371446mm"
   height="7.9374976mm"
   viewBox="0 0 7.6371446 7.9374976"
   version="1.1"
   id="svg8412"
   inkscape:version="1.1 (c68e22c387, 2021-05-23)"
   sodipodi:docname="door_monitor_lock.svg"
   xmlns:inkscape="http://www.inkscape.org/namespaces/inkscape"
   xmlns:sodipodi="http://sodipodi.sourceforge.net/DTD/sodipodi-0.dtd"
   xmlns="http://www.w3.org/2000/svg"
   xmlns:svg="http://www.w3.org/2000/svg">
  <sodipodi:namedview
     id="namedview8414"
     pagecolor="#ffffff"
     bordercolor="#666666"
     borderopacity="1.0"
     inkscape:pageshadow="2"
     inkscape:pageopacity="0.0"
     inkscape:pagecheckerboard="0"
     inkscape:document-units="mm"
     showgrid="false"
     fit-margin-top="0"
     fit-margin-left="0"
     fit-margin-right="0"
     fit-margin-bottom="0"
     inkscape:zoom="16"
     inkscape:cx="41.34375"
     inkscape:cy="24.8125"
     inkscape:window-width="2400"
     inkscape:window-height="1284"
     inkscape:window-x="7191"
     inkscape:window-y="-9"
     inkscape:window-maximized="1"
     inkscape:current-layer="layer1" />
  <defs
     id="defs8409" />
  <g
     inkscape:label="Layer 1"
     inkscape:groupmode="layer"
     id="layer1"
     transform="translate(-94.220263,-137.68295)">
    <path
       style="display:inline;fill:#00ff00;stroke-width:0.0163472"
       d="m 95.912223,145.58098 c -0.304122,-0.0665 -0.557882,-0.30535 -0.615553,-0.57949 -0.02408,-0.11449 -0.02408,-3.64498 0,-3.75947 0.02913,-0.13849 0.108557,-0.2701 0.227959,-0.37773 0.182052,-0.16412 0.365851,-0.22526 0.67841,-0.22567 l 0.17499,-2.3e-4 0.0077,-0.63248 c 0.0084,-0.68588 0.01201,-0.71722 0.116541,-1.00068 0.106058,-0.28759 0.273666,-0.5273 0.530768,-0.75907 0.325925,-0.29381 0.677191,-0.46394 1.138562,-0.55143 0.19873,-0.0377 0.62112,-0.0378 0.83116,-1.8e-4 0.43622,0.0781 0.81056,0.26019 1.13382,0.55161 0.25711,0.23177 0.42471,0.47148 0.53077,0.75907 0.10453,0.28346 0.10818,0.3148 0.11654,1.00068 l 0.008,0.63248 h 0.16834 c 0.21999,0 0.32705,0.0192 0.47683,0.0854 0.2111,0.0933 0.3718,0.27832 0.42781,0.49248 0.0381,0.1458 0.0381,3.6652 0,3.811 -0.0354,0.13551 -0.0947,0.23354 -0.20783,0.34368 -0.10956,0.10668 -0.28129,0.19286 -0.43574,0.21868 -0.0593,0.01 -1.01477,0.015 -2.65146,0.0142 -2.120474,-10e-4 -2.575617,-0.005 -2.657336,-0.0228 z m 5.300217,-0.5123 c 0.0262,-0.0176 0.0635,-0.0513 0.083,-0.0749 0.0354,-0.0427 0.0355,-0.0488 0.0355,-1.87206 0,-1.82327 -1.2e-4,-1.82934 -0.0355,-1.87207 -0.0195,-0.0236 -0.0569,-0.0573 -0.0831,-0.0749 -0.0475,-0.032 -0.0486,-0.032 -2.62762,-0.032 -2.578991,0 -2.580089,2e-5 -2.627616,0.032 -0.02615,0.0176 -0.06352,0.0513 -0.08305,0.0749 -0.0353,0.0426 -0.03552,0.0527 -0.04046,1.83052 -0.0027,0.98322 -4.82e-4,1.81016 0.005,1.83765 0.01238,0.0622 0.08474,0.14151 0.154072,0.16884 0.04311,0.017 0.510459,0.0201 2.612324,0.0173 2.55566,-0.003 2.55989,-0.003 2.60736,-0.0354 z m -2.69798,-0.7972 c -0.0798,-0.0226 -0.13389,-0.0646 -0.16984,-0.13152 -0.0329,-0.0613 -0.0353,-0.0941 -0.0353,-0.48527 v -0.41957 l -0.0724,-0.0294 c -0.109743,-0.0446 -0.24736,-0.17493 -0.307913,-0.29158 -0.295226,-0.56873 0.344693,-1.14671 0.975133,-0.88076 0.28013,0.11818 0.44796,0.40327 0.40367,0.68574 -0.0311,0.19861 -0.19748,0.41439 -0.3751,0.4866 l -0.0724,0.0294 v 0.41957 c 0,0.39264 -0.002,0.42383 -0.0357,0.48597 -0.0552,0.10285 -0.19746,0.16284 -0.31018,0.13082 z m 0.14821,-1.50015 c 0.0526,-0.0225 0.11154,-0.0998 0.11154,-0.14625 0,-0.0102 -0.0122,-0.0418 -0.0272,-0.0702 -0.0332,-0.0631 -0.12571,-0.10684 -0.19622,-0.0929 -0.0635,0.0126 -0.13294,0.0751 -0.14689,0.13243 -0.0151,0.0619 0.0329,0.14637 0.10032,0.17632 0.0691,0.0307 0.0878,0.0308 0.15841,5.5e-4 z m 1.57501,-2.68966 c 0,-0.61643 -0.0117,-0.72341 -0.10397,-0.95338 -0.15642,-0.38968 -0.54356,-0.73858 -0.97612,-0.87968 -0.40235,-0.13124 -0.83564,-0.12061 -1.228665,0.0302 -0.396204,0.15199 -0.746939,0.48565 -0.892992,0.84952 -0.09231,0.22997 -0.103975,0.33695 -0.103975,0.95338 v 0.55672 h 1.652862 1.65286 z"
       id="path841" />
    <text
       xml:space="preserve"
       style="font-style:normal;font-weight:normal;font-size:3.7305px;line-height:1.25;font-family:sans-serif;fill:#ffffff;fill-opacity:1;stroke:none;stroke-width:0.093263"
       x="89.878906"
       y="149.55057"
       id="text4590"
       transform="scale(1.0442811,0.95759657)"><tspan
         sodipodi:role="line"
         id="tspan4588"
         style="font-weight:bold;fill:#ffffff;stroke-width:0.093263"
         x="89.878906"
         y="149.55057">M</tspan></text>
  </g>
</svg>
