<?xml version="1.0" encoding="UTF-8" standalone="no"?>
<!-- Created with Inkscape (http://www.inkscape.org/) -->

<svg
   width="6.6145773mm"
   height="7.9375777mm"
   viewBox="0 0 6.6145771 7.9375775"
   version="1.1"
   id="svg43"
   inkscape:version="1.1 (c68e22c387, 2021-05-23)"
   sodipodi:docname="locked_Monitor.svg"
   xmlns:inkscape="http://www.inkscape.org/namespaces/inkscape"
   xmlns:sodipodi="http://sodipodi.sourceforge.net/DTD/sodipodi-0.dtd"
   xmlns="http://www.w3.org/2000/svg"
   xmlns:svg="http://www.w3.org/2000/svg">
  <sodipodi:namedview
     id="namedview45"
     pagecolor="#ffffff"
     bordercolor="#666666"
     borderopacity="1.0"
     inkscape:pageshadow="2"
     inkscape:pageopacity="0.0"
     inkscape:pagecheckerboard="0"
     inkscape:document-units="mm"
     showgrid="false"
     fit-margin-top="0"
     fit-margin-left="0"
     fit-margin-right="0"
     fit-margin-bottom="0"
     inkscape:zoom="4"
     inkscape:cx="-11.625"
     inkscape:cy="83.5"
     inkscape:window-width="1482"
     inkscape:window-height="1004"
     inkscape:window-x="5229"
     inkscape:window-y="0"
     inkscape:window-maximized="0"
     inkscape:current-layer="layer1" />
  <defs
     id="defs40" />
  <g
     inkscape:label="Layer 1"
     inkscape:groupmode="layer"
     id="layer1"
     transform="translate(-47.482018,-117.38571)">
    <path
       style="display:inline;fill:#f2f2f2;stroke-width:0.0163472"
       d="m 48.049498,125.43257 c -0.304122,-0.0665 -0.557882,-0.30535 -0.615553,-0.57949 -0.02408,-0.11449 -0.02408,-3.64498 0,-3.75947 0.02913,-0.13849 0.108557,-0.2701 0.227959,-0.37774 0.182052,-0.16411 0.365851,-0.22525 0.67841,-0.22566 l 0.17499,-2.3e-4 0.0077,-0.63248 c 0.0084,-0.68589 0.01201,-0.71722 0.116541,-1.00068 0.106058,-0.2876 0.273666,-0.5273 0.530768,-0.75907 0.325925,-0.29382 0.677191,-0.46394 1.138559,-0.55143 0.198735,-0.0377 0.621127,-0.0378 0.831164,-1.8e-4 0.436222,0.0781 0.810557,0.26019 1.133825,0.55161 0.257102,0.23177 0.42471,0.47147 0.530769,0.75907 0.104529,0.28346 0.108179,0.31479 0.11654,1.00068 l 0.0077,0.63248 h 0.168335 c 0.219996,0 0.327047,0.0192 0.476829,0.0854 0.211099,0.0933 0.3718,0.27832 0.427811,0.49248 0.03813,0.1458 0.03813,3.66519 0,3.811 -0.03544,0.13551 -0.09472,0.23354 -0.207833,0.34367 -0.10956,0.10668 -0.281292,0.19287 -0.435732,0.21869 -0.05932,0.01 -1.014772,0.015 -2.651466,0.0142 -2.120472,-0.001 -2.575615,-0.005 -2.657335,-0.0228 z m 5.300218,-0.5123 c 0.02615,-0.0176 0.06352,-0.0513 0.08304,-0.0749 0.03538,-0.0427 0.0355,-0.0488 0.0355,-1.87206 0,-1.82327 -1.21e-4,-1.82935 -0.0355,-1.87207 -0.01952,-0.0236 -0.05689,-0.0573 -0.08305,-0.0749 -0.04753,-0.032 -0.04863,-0.032 -2.627618,-0.032 -2.578994,0 -2.580092,2e-5 -2.627619,0.032 -0.02615,0.0176 -0.06352,0.0513 -0.08305,0.0749 -0.0353,0.0426 -0.03552,0.0527 -0.04046,1.83052 -0.0027,0.98322 -4.82e-4,1.81016 0.005,1.83765 0.01238,0.0622 0.08474,0.14151 0.154072,0.16884 0.04311,0.017 0.510459,0.0201 2.612321,0.0173 2.555663,-0.003 2.559892,-0.003 2.607359,-0.0354 z m -2.697978,-0.7972 c -0.07975,-0.0226 -0.13389,-0.0646 -0.169839,-0.13152 -0.0329,-0.0613 -0.03528,-0.0941 -0.03528,-0.48527 v -0.41957 l -0.07242,-0.0294 c -0.109747,-0.0446 -0.247364,-0.17493 -0.307917,-0.29158 -0.295226,-0.56873 0.344692,-1.14671 0.975136,-0.88076 0.280128,0.11817 0.447954,0.40327 0.403664,0.68574 -0.03114,0.19861 -0.197482,0.41439 -0.375098,0.4866 l -0.07241,0.0294 v 0.41957 c 0,0.39264 -0.0023,0.42383 -0.03566,0.48597 -0.05523,0.10285 -0.197464,0.16284 -0.310179,0.13082 z m 0.148208,-1.50015 c 0.05259,-0.0225 0.11154,-0.0998 0.11154,-0.14625 0,-0.0102 -0.01222,-0.0418 -0.02716,-0.0702 -0.03319,-0.0631 -0.125707,-0.10684 -0.19622,-0.0929 -0.06354,0.0126 -0.132938,0.0751 -0.146894,0.13242 -0.01509,0.0619 0.03294,0.14638 0.10032,0.17633 0.06905,0.0307 0.08781,0.0308 0.15841,5.4e-4 z m 1.575012,-2.68966 c 0,-0.61643 -0.01167,-0.72341 -0.103975,-0.95338 -0.156415,-0.38969 -0.54356,-0.73858 -0.976112,-0.87968 -0.402353,-0.13124 -0.835645,-0.12061 -1.228671,0.0302 -0.396203,0.15199 -0.746938,0.48565 -0.892992,0.84952 -0.09231,0.22997 -0.103974,0.33695 -0.103974,0.95338 v 0.55672 h 1.652862 1.652862 z"
       id="path20" />
    <text
       xml:space="preserve"
       style="font-style:normal;font-variant:normal;font-weight:normal;font-stretch:normal;font-size:3.24154px;line-height:1.25;font-family:Dubai;-inkscape-font-specification:Dubai;fill:#1a1a1a;fill-opacity:1;stroke:none;stroke-width:0.0810387"
       x="47.855835"
       y="118.93997"
       id="text2110"
       transform="scale(0.99237141,1.0076872)"><tspan
         sodipodi:role="line"
         id="tspan2108"
         style="font-style:normal;font-variant:normal;font-weight:normal;font-stretch:normal;font-family:Dubai;-inkscape-font-specification:Dubai;fill:#1a1a1a;stroke-width:0.0810387"
         x="47.855835"
         y="118.93997">M</tspan></text>
  </g>
</svg>
