<?xml version="1.0" encoding="UTF-8" standalone="no"?>
<!-- Created with Inkscape (http://www.inkscape.org/) -->

<svg
   width="6.6145773mm"
   height="7.9375777mm"
   viewBox="0 0 6.6145771 7.9375775"
   version="1.1"
   id="svg43"
   inkscape:version="1.1 (c68e22c387, 2021-05-23)"
   sodipodi:docname="Unlocked_Monitor.svg"
   xmlns:inkscape="http://www.inkscape.org/namespaces/inkscape"
   xmlns:sodipodi="http://sodipodi.sourceforge.net/DTD/sodipodi-0.dtd"
   xmlns="http://www.w3.org/2000/svg"
   xmlns:svg="http://www.w3.org/2000/svg">
  <sodipodi:namedview
     id="namedview45"
     pagecolor="#ffffff"
     bordercolor="#666666"
     borderopacity="1.0"
     inkscape:pageshadow="2"
     inkscape:pageopacity="0.0"
     inkscape:pagecheckerboard="0"
     inkscape:document-units="mm"
     showgrid="false"
     fit-margin-top="0"
     fit-margin-left="0"
     fit-margin-right="0"
     fit-margin-bottom="0"
     inkscape:zoom="4"
     inkscape:cx="-11.625"
     inkscape:cy="83.5"
     inkscape:window-width="1482"
     inkscape:window-height="1004"
     inkscape:window-x="5229"
     inkscape:window-y="0"
     inkscape:window-maximized="0"
     inkscape:current-layer="layer1" />
  <defs
     id="defs40" />
  <g
     inkscape:label="Layer 1"
     inkscape:groupmode="layer"
     id="layer1"
     transform="translate(-47.482018,-117.38571)">
    <path
       id="path1024"
       style="display:inline;fill:#ececec;fill-opacity:1;stroke-width:0.0163469"
       d="m 50.786452,117.38575 c -0.156693,3e-5 -0.312027,0.009 -0.411393,0.0283 -0.461358,0.0875 -0.812582,0.25776 -1.138502,0.55157 -0.257098,0.23177 -0.424644,0.47155 -0.530701,0.75915 -0.104527,0.28344 -0.108138,0.31474 -0.116497,1.00061 l -0.0079,0.63225 -0.175025,2.8e-4 c -0.312555,4.1e-4 -0.496101,0.0617 -0.67815,0.22578 -0.1194,0.10764 -0.199075,0.23913 -0.228206,0.37761 -0.02408,0.11449 -0.02408,3.64511 0,3.7596 0.05767,0.27413 0.311564,0.51284 0.61568,0.5793 0.08172,0.0179 0.536726,0.0219 2.657164,0.023 1.636669,8.1e-4 2.592216,-0.004 2.651537,-0.0143 0.154438,-0.0258 0.326314,-0.1121 0.435873,-0.21878 0.113109,-0.11013 0.172223,-0.20792 0.207666,-0.34343 0.03813,-0.14581 0.03813,-3.66534 0,-3.81114 -0.05601,-0.21416 -0.216617,-0.39914 -0.427713,-0.49246 -0.149779,-0.0662 -0.256962,-0.0854 -0.476956,-0.0854 H 52.99506 v -0.007 h -0.553776 v 0.007 H 50.788401 49.135517 V 119.801 c 0,-0.61642 0.01153,-0.7233 0.103832,-0.95327 0.146052,-0.36386 0.496933,-0.69764 0.893132,-0.84963 0.39302,-0.15077 0.826202,-0.16121 1.228547,-0.03 0.432547,0.14109 0.819731,0.48992 0.976143,0.8796 0.03422,0.0853 0.05731,0.15359 0.07288,0.23727 h 0.556308 c -0.01477,-0.13531 -0.04201,-0.21472 -0.09567,-0.36025 -0.106057,-0.28759 -0.273604,-0.52737 -0.530701,-0.75914 -0.323264,-0.29142 -0.697506,-0.4735 -1.13372,-0.55157 -0.105017,-0.0188 -0.263142,-0.0283 -0.419834,-0.0283 z m -0.849516,3.47638 c 0.246938,-6e-5 0.529116,0 0.851486,0 2.578951,0 2.580093,-5e-5 2.627618,0.0319 0.02615,0.0176 0.06349,0.0515 0.08301,0.0751 0.03538,0.0427 0.03545,0.0486 0.03545,1.87182 0,1.82324 -7.2e-5,1.82937 -0.03545,1.87209 -0.01953,0.0236 -0.05686,0.0572 -0.08301,0.0748 -0.04747,0.0319 -0.05174,0.0322 -2.607358,0.0356 -2.101831,0.003 -2.569314,-3.8e-4 -2.612423,-0.0174 -0.06933,-0.0273 -0.141539,-0.1067 -0.15392,-0.16892 -0.0055,-0.0275 -0.0078,-0.85444 -0.0051,-1.83764 0.005,-1.77781 0.0052,-1.78773 0.04052,-1.83035 0.01953,-0.0236 0.05686,-0.0575 0.08301,-0.0751 0.04158,-0.028 0.04757,-0.0315 1.776134,-0.0319 z m 0.849516,0.82386 c -0.501666,-8.7e-4 -0.89843,0.47642 -0.65395,0.94739 0.06055,0.11665 0.198095,0.247 0.307841,0.29161 l 0.0726,0.0294 v 0.41963 c 0,0.3912 0.0023,0.42393 0.03518,0.48519 0.03595,0.0669 0.09021,0.109 0.169958,0.13166 0.112713,0.032 0.25486,-0.028 0.310093,-0.13082 0.03337,-0.0621 0.03574,-0.0934 0.03574,-0.48603 v -0.41963 l 0.07232,-0.0294 c 0.177613,-0.0722 0.343951,-0.28797 0.375092,-0.48658 0.04429,-0.28245 -0.12367,-0.56758 -0.403794,-0.68575 -0.108356,-0.0457 -0.216946,-0.0665 -0.321066,-0.0667 z" />
    <text
       xml:space="preserve"
       style="font-style:normal;font-variant:normal;font-weight:normal;font-stretch:normal;font-size:2.68227px;line-height:1.25;font-family:Dubai;-inkscape-font-specification:Dubai;fill:#1a1a1a;fill-opacity:1;stroke:none;stroke-width:0.0670568"
       x="48.266506"
       y="117.69846"
       id="text2110"
       transform="scale(0.98490485,1.0153265)"><tspan
         sodipodi:role="line"
         id="tspan2108"
         style="font-style:normal;font-variant:normal;font-weight:normal;font-stretch:normal;font-family:Dubai;-inkscape-font-specification:Dubai;fill:#1a1a1a;stroke-width:0.0670568"
         x="48.266506"
         y="117.69846">M</tspan></text>
  </g>
</svg>
